<svg xmlns="http://www.w3.org/2000/svg" width="677.124" height="609.944" viewBox="0 0 677.124 609.944">
    <g data-name="Group 19">
        <g data-name="Group 7">
            <path data-name="Path 59" d="M669.215 444.96A54.343 54.343 0 0 1 659 457.44a59.937 59.937 0 0 1-3.372 2.821c-14.72 11.488-34.429 16.537-53.575 19.808-37.172 6.35-75.121 7.586-112.909 8.8-31.815 1.03-63.649 2.061-95.476 2.743-45.492.992-90.99 1.288-136.411 0q-37.243-1.063-74.428-3.748c-46-3.419-93.177-9.46-133.217-30.556a135.458 135.458 0 0 1-20.924-13.459c-10.874-8.61-19.828-19.029-24.616-31.368-7.7-19.834-3.632-42.122 5.167-61.57 5.333-11.759 12.26-22.771 19.448-33.686 4.255-6.478 8.6-12.918 12.74-19.454.433-.644.853-1.333 1.268-2 .8-1.288 1.594-2.576 2.37-3.864 3.247-5.429 6.323-11.031 9.143-16.743s5.353-11.549 7.615-17.529a162.031 162.031 0 0 0 5.333-16.743 136.426 136.426 0 0 0 2.453-11.521c3.5-20.935 1.653-41.858-8.717-60.8-.1-.187-.207-.386-.314-.573l-.13-.225a177.977 177.977 0 0 0-9.932-15.082c-4.148-5.924-8.231-11.888-11.1-18.411-7.561-17.239-5.926-36.622-3.176-55.033 3.668-24.471 10.495-50.873 31.632-66.129 21.955-15.88 53.124-15.075 80.377-9.4 42.345 8.8 81.45 27.266 120.933 43.925S350 79.541 393.412 81.171c38.334 1.449 83.044-9.37 108.483-37.511 24.71-27.323 71.162-29.4 104.655-12.879 31.952 15.745 52.615 49.077 51.062 82.357-2.264 48.471-45.249 85.647-70.9 128.059a135.426 135.426 0 0 0-3.336 5.8c-10.074 18.5-16.278 39.746-8.847 59.007 9.967 25.8 39.56 38.393 64.52 54.6 12.053 7.824 23.051 16.5 30.162 27.935.267.412.51.818.753 1.224 10.036 16.868 9.277 38.415-.749 55.197z" style="opacity:.1;fill:#fff"/>
            <path data-name="Path 60" d="M16.385 194.607a237.768 237.768 0 0 0 9.143-16.743q4.22-8.54 7.621-17.516a162.032 162.032 0 0 0 5.333-16.748 136.426 136.426 0 0 0 2.453-11.521c3.5-20.935 1.653-41.858-8.717-60.8-.1-.187-.207-.386-.314-.573L21.83 55.407h74.754v53.939h20.793v161.8h26.832v-52.487H176.4v52.483h26.814v-89.659h1.339v-46.649h25.481v46.649h59.026v69.973h32.87v-21.895h20.148v21.895h32.864V44.447h42.926v-32.8h7.378v32.8h12.071v64.873h21.473V55.381h18.11V0h37.557v55.381h18.115v53.939H554.7v40.38c-10.074 18.5-16.278 39.746-8.847 59.007 9.967 25.8 39.56 38.393 64.52 54.6 12.053 7.831 23.051 16.5 30.162 27.942V347.7a54.321 54.321 0 0 1-10.216 12.461 59.937 59.937 0 0 1-3.372 2.821c-14.719 11.488-34.429 16.537-53.575 19.808-37.172 6.35-75.121 7.586-112.909 8.8-31.815 1.03-63.649 2.061-95.476 2.743H228.568q-37.243-1.062-74.428-3.748c-46-3.419-93.177-9.46-133.217-30.556A135.463 135.463 0 0 1 0 346.563V219.94c4.255-6.478 8.6-12.918 12.74-19.454z" transform="translate(28.676 97.283)" style="opacity:.3;fill:#fff"/>
            <path data-name="Path 61" d="M2.43 0v11.521H0C.96 7.689 1.778 3.844 2.43 0z" transform="translate(67.158 229.341)" style="opacity:.4;fill:#fff"/>
            <path data-name="Rectangle 27" transform="rotate(180 66.318 120.431)" style="opacity:.4;fill:#fff" d="M0 0h28.171v17.497H0z"/>
            <path data-name="Path 62" d="M15.407 0v17.49H0Q4.231 8.963 7.644 0z" transform="translate(54.18 257.63)" style="opacity:.4;fill:#fff"/>
            <path data-name="Rectangle 28" transform="rotate(180 66.318 137.56)" style="opacity:.4;fill:#fff" d="M0 0h28.171v17.497H0z"/>
            <path data-name="Path 63" d="M3.644 0h24.527v17.5H0V5.886z" transform="translate(41.416 291.883)" style="opacity:.4;fill:#fff"/>
            <path data-name="Rectangle 29" transform="rotate(180 66.318 154.69)" style="opacity:.4;fill:#fff" d="M0 0h28.171v17.497H0z"/>
            <path data-name="Rectangle 30" transform="translate(41.416 326.148)" style="opacity:.4;fill:#fff" d="M0 0h28.171v17.497H0z"/>
            <path data-name="Rectangle 31" transform="rotate(180 66.318 171.82)" style="opacity:.4;fill:#fff" d="M0 0h28.171v17.497H0z"/>
            <path data-name="Rectangle 32" transform="translate(41.416 360.407)" style="opacity:.4;fill:#fff" d="M0 0h28.171v17.497H0z"/>
            <path data-name="Rectangle 33" transform="rotate(180 66.318 188.949)" style="opacity:.4;fill:#fff" d="M0 0h28.171v17.497H0z"/>
            <path data-name="Rectangle 34" transform="translate(41.416 394.666)" style="opacity:.4;fill:#fff" d="M0 0h28.171v17.497H0z"/>
            <path data-name="Rectangle 35" transform="rotate(180 66.318 206.078)" style="opacity:.4;fill:#fff" d="M0 0h28.171v17.497H0z"/>
            <path data-name="Rectangle 36" transform="translate(41.416 428.925)" style="opacity:.4;fill:#fff" d="M0 0h28.171v17.497H0z"/>
            <path data-name="Rectangle 37" transform="rotate(180 66.318 223.208)" style="opacity:.4;fill:#fff" d="M0 0h28.171v17.497H0z"/>
            <path data-name="Rectangle 38" transform="translate(156.115 385.915)" style="opacity:.4;fill:#fff" d="M0 0h65.734v8.745H0z"/>
            <path data-name="Rectangle 39" transform="translate(156.115 399.039)" style="opacity:.4;fill:#fff" d="M0 0h65.734v8.745H0z"/>
            <path data-name="Rectangle 40" transform="translate(156.115 412.157)" style="opacity:.4;fill:#fff" d="M0 0h65.734v8.745H0z"/>
            <path data-name="Rectangle 41" transform="translate(327.826 390.294)" style="opacity:.4;fill:#fff" d="M0 0h65.734v8.745H0z"/>
            <path data-name="Rectangle 42" transform="translate(327.826 403.412)" style="opacity:.4;fill:#fff" d="M0 0h65.734v8.745H0z"/>
            <path data-name="Rectangle 43" transform="translate(327.826 416.529)" style="opacity:.4;fill:#fff" d="M0 0h65.734v8.745H0z"/>
            <path data-name="Rectangle 44" transform="translate(156.115 425.281)" style="opacity:.4;fill:#fff" d="M0 0h65.734v8.745H0z"/>
            <path data-name="Rectangle 45" transform="translate(156.115 438.398)" style="opacity:.4;fill:#fff" d="M0 0h65.734v8.745H0z"/>
            <path data-name="Rectangle 46" transform="translate(156.115 451.522)" style="opacity:.4;fill:#fff" d="M0 0h65.734v8.745H0z"/>
            <path data-name="Rectangle 47" transform="translate(245.991 295.534)" style="opacity:.4;fill:#fff" d="M0 0h18.109v25.514H0z"/>
            <path data-name="Rectangle 48" transform="rotate(180 151.839 160.521)" style="opacity:.4;fill:#fff" d="M0 0h18.109v25.514H0z"/>
            <path data-name="Rectangle 49" transform="translate(245.991 336.349)" style="opacity:.4;fill:#fff" d="M0 0h18.109v25.514H0z"/>
            <path data-name="Rectangle 50" transform="rotate(180 151.839 180.931)" style="opacity:.4;fill:#fff" d="M0 0h18.109v25.514H0z"/>
            <path data-name="Rectangle 51" transform="translate(245.991 377.17)" style="opacity:.4;fill:#fff" d="M0 0h18.109v25.514H0z"/>
            <path data-name="Rectangle 52" transform="rotate(180 151.839 201.342)" style="opacity:.4;fill:#fff" d="M0 0h18.109v25.514H0z"/>
            <path data-name="Rectangle 53" transform="translate(245.991 417.991)" style="opacity:.4;fill:#fff" d="M0 0h18.109v25.514H0z"/>
            <path data-name="Rectangle 54" transform="rotate(180 151.839 221.752)" style="opacity:.4;fill:#fff" d="M0 0h18.109v25.514H0z"/>
            <path data-name="Path 64" d="M.314 0v.573C.213.386.107.187 0 0z" transform="translate(60.556 167.971)" style="opacity:.4;fill:#fff"/>
            <path data-name="Path 67" d="M47.074 7.019h-4.616a3.378 3.378 0 0 0 3.23-3.51A3.378 3.378 0 0 0 42.458 0H5.072a3.378 3.378 0 0 0-3.23 3.51 3.378 3.378 0 0 0 3.23 3.51h4.617a3.4 3.4 0 0 0-3.1 3.513 3.4 3.4 0 0 0 3.1 3.513H3.23A3.378 3.378 0 0 0 0 17.555a3.378 3.378 0 0 0 3.23 3.51h37.38a3.378 3.378 0 0 0 3.23-3.51 3.378 3.378 0 0 0-3.23-3.51h6.465a3.4 3.4 0 0 0 3.1-3.513 3.4 3.4 0 0 0-3.1-3.513z" transform="translate(159.137 125.006)" style="opacity:.1;fill:#fff"/>
            <path data-name="Path 68" d="M47.086 7.019H42.47A3.378 3.378 0 0 0 45.7 3.51 3.378 3.378 0 0 0 42.47 0H5.084a3.378 3.378 0 0 0-3.23 3.51 3.378 3.378 0 0 0 3.23 3.51h4.6a3.4 3.4 0 0 0-3.1 3.513 3.4 3.4 0 0 0 3.1 3.513H3.23A3.378 3.378 0 0 0 0 17.554a3.378 3.378 0 0 0 3.23 3.51h37.391a3.378 3.378 0 0 0 3.23-3.51 3.378 3.378 0 0 0-3.23-3.51h6.465a3.4 3.4 0 0 0 3.1-3.513 3.4 3.4 0 0 0-3.1-3.512z" transform="translate(324.128 213.203)" style="opacity:.1;fill:#fff"/>
            <path data-name="Rectangle 55" transform="translate(403.616 158.498)" style="opacity:.4;fill:#fff" d="M0 0h24.147v33.531H0z"/>
            <path data-name="Rectangle 56" transform="translate(403.616 206.602)" style="opacity:.4;fill:#fff" d="M0 0h24.147v33.531H0z"/>
            <path data-name="Rectangle 57" transform="translate(403.616 254.713)" style="opacity:.4;fill:#fff" d="M0 0h24.147v33.531H0z"/>
            <path data-name="Rectangle 58" transform="translate(403.616 302.824)" style="opacity:.4;fill:#fff" d="M0 0h24.147v33.531H0z"/>
            <path data-name="Rectangle 59" transform="translate(403.616 350.928)" style="opacity:.4;fill:#fff" d="M0 0h24.147v33.531H0z"/>
            <path data-name="Rectangle 60" transform="translate(403.616 399.039)" style="opacity:.4;fill:#fff" d="M0 0h24.147v33.531H0z"/>
            <path data-name="Rectangle 61" transform="translate(479.75 227.016)" style="opacity:.4;fill:#fff" d="M0 0h89.882v28.425H0z"/>
            <path data-name="Rectangle 62" transform="translate(480.082 288.245)" style="opacity:.4;fill:#fff" d="M0 0h89.882v28.425H0z"/>
            <path data-name="Rectangle 63" transform="translate(480.42 349.473)" style="opacity:.4;fill:#fff" d="M0 0h89.882v28.425H0z"/>
            <path data-name="Rectangle 64" transform="translate(480.752 410.701)" style="opacity:.4;fill:#fff" d="M0 0h89.882v28.425H0z"/>
            <ellipse data-name="Ellipse 13" cx=".634" cy=".689" rx=".634" ry=".689" transform="translate(471.46 505.139)" style="opacity:.25;fill:#fff"/>
            <path data-name="Path 69" d="M46.942 7.019h-4.617a3.378 3.378 0 0 0 3.23-3.51A3.378 3.378 0 0 0 42.325 0H4.94a3.378 3.378 0 0 0-3.23 3.51 3.378 3.378 0 0 0 3.23 3.51h4.616a3.378 3.378 0 0 0-3.229 3.51 3.378 3.378 0 0 0 3.229 3.51H3.1A3.4 3.4 0 0 0 0 17.551a3.4 3.4 0 0 0 3.1 3.513h37.38a3.181 3.181 0 0 0 2.917-1.712 3.779 3.779 0 0 0 0-3.6 3.181 3.181 0 0 0-2.917-1.712h6.465a3.378 3.378 0 0 0 3.23-3.51 3.378 3.378 0 0 0-3.233-3.511z" transform="translate(605.314 98.036)" style="opacity:.1;fill:#fff"/>
            <path data-name="Path 65" d="M30.162 27.922v10.523H0V0c12.053 7.811 23.051 16.486 30.162 27.922z" transform="translate(639.053 360.613)" style="opacity:.4;fill:#fff"/>
            <path data-name="Path 66" d="M30.18 0v26.969a54.335 54.335 0 0 1-10.216 12.48 59.937 59.937 0 0 1-3.372 2.821H0V0z" transform="translate(639.035 417.991)" style="opacity:.4;fill:#fff"/>
        </g>
        <g data-name="Group 16" transform="translate(-901.951 -313.575)">
            <path data-name="Path 1" d="M586.581 609.082h-15.547V489.426h12.644a2.317 2.317 0 0 1 2.322 2.305z" transform="translate(787.321 313.204)" style="fill:#ccc"/>
            <path data-name="Path 2" d="M476.818 629.99H309.863v-85.216h166.955z" transform="translate(882.99 292.929)" style="fill:#fff"/>
            <path data-name="Path 3" d="M411.2 629.856H310.363v-84.582h166.322v19.093a65.563 65.563 0 0 1-65.485 65.489z" transform="translate(882.807 292.746)" style="fill:#f2f2f2"/>
            <path data-name="Path 4" d="M488.747 492.825a2.322 2.322 0 0 0-.194.5l-5.753 22.191-6.245 11.826H310.863V524.4l9.433-8.881 11-21.049a9.391 9.391 0 0 1 1.887-2.489 9.393 9.393 0 0 1 6.437-2.552H486.7a2.317 2.317 0 0 1 2.048 3.4z" transform="translate(882.624 313.204)" style="fill:#f2f2f2"/>
            <path data-name="Path 5" d="M476.818 629.99H309.863v-85.216h166.955zm-165.688-1.267h164.421v-82.681H311.13z" transform="translate(882.99 292.929)" style="fill:#e6e6e6"/>
            <path data-name="Path 6" d="m210.659 292.9-3.076 11.339H45.084l5.251-9.438z" transform="translate(1157.836 524.482)" style="fill:#ccc"/>
            <path data-name="Rectangle 14" transform="translate(1199.01 882.358)" style="fill:#fff" d="M0 0h26.614v1.473H0z"/>
            <path data-name="Rectangle 15" transform="translate(1199.01 887.513)" style="fill:#fff" d="M0 0h26.614v1.473H0z"/>
            <path data-name="Rectangle 16" transform="translate(1199.01 892.667)" style="fill:#fff" d="M0 0h26.614v1.473H0z"/>
            <circle data-name="Ellipse 1" cx="9.573" cy="9.573" r="9.573" transform="translate(1199.746 846.806)" style="fill:#fff"/>
            <path data-name="Path 7" d="M496.721 484.278h-8.13V421.7h6.609a1.212 1.212 0 0 1 1.211 1.205z" transform="translate(817.521 338.011)" style="fill:#ccc"/>
            <path data-name="Path 8" d="M439.32 495.212h-87.31v-44.564h87.31z" transform="translate(867.551 327.409)" style="fill:#fff"/>
            <path data-name="Path 9" d="M405 495.142h-52.728v-44.233h86.978v9.985A34.286 34.286 0 0 1 405 495.142z" transform="translate(867.456 327.313)" style="fill:#f2f2f2"/>
            <path data-name="Path 10" d="M445.558 423.481a1.214 1.214 0 0 0-.1.262l-3.011 11.6-3.266 6.185h-86.648v-1.54l4.933-4.644 5.755-11.008a4.911 4.911 0 0 1 .987-1.3 4.912 4.912 0 0 1 3.366-1.335h76.913a1.211 1.211 0 0 1 1.071 1.777z" transform="translate(867.36 338.011)" style="fill:#f2f2f2"/>
            <path data-name="Path 11" d="M439.32 495.212h-87.31v-44.564h87.31zm-86.647-.663h85.985v-43.238h-85.985z" transform="translate(867.551 327.409)" style="fill:#e6e6e6"/>
            <path data-name="Path 12" d="M166.241 214.071 164.632 220H79.653l2.746-4.936z" transform="translate(1145.173 553.357)" style="fill:#ccc"/>
            <path data-name="Rectangle 17" transform="translate(1222.781 801.408)" style="fill:#fff" d="M0 0h13.918v.77H0z"/>
            <path data-name="Rectangle 18" transform="translate(1222.781 804.104)" style="fill:#fff" d="M0 0h13.918v.77H0z"/>
            <path data-name="Rectangle 19" transform="translate(1222.781 806.8)" style="fill:#fff" d="M0 0h13.918v.77H0z"/>
            <circle data-name="Ellipse 2" cx="5.006" cy="5.006" r="5.006" transform="translate(1223.166 782.816)" style="fill:#fff"/>
            <path data-name="Path 13" d="m879.219 659.239-.05-.27a31.75 31.75 0 0 1 6.72-25.836 30.8 30.8 0 0 1 5.66-5.26l.2-.145.088.231c1.045 2.754 2.363 5.513 2.964 6.733l.405-9.114.231-.123a6.022 6.022 0 0 1 6.712.693 6.125 6.125 0 0 1 2.023 6.558 136.897 136.897 0 0 0-.9 3.256c-.989 3.691-2.012 7.508-3.993 10.722a19.191 19.191 0 0 1-13.967 8.824z" transform="translate(674.636 263.636)" style="fill:#f2f2f2"/>
            <path data-name="Path 15" d="m757.447 373.574-11.541-1.653c-3.9 6.527-5.291 23.9-5.291 23.9l-11.295 26.846a5.147 5.147 0 1 0 8.025 3.866l18.545-31.248z" transform="translate(730.166 356.247)" style="fill:#ffb8b8"/>
            <path data-name="Path 16" d="M763.405 323.88a12.3 12.3 0 0 1 9.718 16.249l-2.449 6.942s-1.333 20.9-6.418 26.8l-15.6-1.412s2.852-10.546.662-15.648c-1.341-3.125-1.267-13.917.055-22.7a12.27 12.27 0 0 1 14.034-10.237z" transform="translate(722.371 373.899)" style="fill:#e6e6e6"/>
            <path data-name="Path 17" d="M545.705 430.917h-6.952l-3.307-26.817h10.261z" transform="translate(978.213 483.749)" style="fill:#ffb6b6"/>
            <path data-name="Path 18" d="M820.329 670.989H798.95v-.27a8.322 8.322 0 0 1 8.321-8.321l3.905-2.963 7.286 2.963h1.866z" transform="translate(703.834 250.929)" style="fill:#2f2e41"/>
            <path data-name="Path 19" d="m492.523 379.654-6.422 2.662-13.328-23.5 9.479-3.93z" transform="translate(1001.17 501.777)" style="fill:#ffb6b6"/>
            <path data-name="Path 20" d="m777.5 619.614-19.746 8.186-.1-.25a8.322 8.322 0 0 1 4.5-10.874l2.472-4.233 7.865-.054 1.724-.715z" transform="translate(719.196 268.422)" style="fill:#2f2e41"/>
            <path data-name="Path 21" d="m799.3 425.5-49.338 5.155-6.6 22.228-22.862 36.731 25.24 46.366 8.887-7.98-8.527-37.438 25.463-27.489 4.828-2 3.833 102 14.176.233 6.2-112.555c2.979-9.943 2.082-18.151-1.3-25.251z" transform="translate(732.57 336.62)" style="fill:#2f2e41"/>
            <path data-name="Path 22" d="m791.639 309.182-8.1-9.119-12.8 1.422-8.193 11.465a17.49 17.49 0 0 0-13.315 20.034c3.179 18.307 13.983 36.062 10.416 45.094-5.415 13.711-5.746 19.3 7.217 17.381s56.392-6.354 47.972-14.774-10.269-22.49-10.269-22.49l-.338-32.19a14.307 14.307 0 0 0-12.6-16.825z" transform="translate(722.139 382.569)" style="fill:#e6e6e6"/>
            <circle data-name="Ellipse 3" cx="14.205" cy="14.205" r="14.205" transform="translate(1483.748 651.89)" style="fill:#ffb8b8"/>
            <path data-name="Path 23" d="M798.775 262.057a24.7 24.7 0 0 1-3.378 8.094 5.51 5.51 0 0 1-1.843 2.092 2.014 2.014 0 0 1-2.559-.32l-.346-.282a7.332 7.332 0 0 0 1.792-1.555 2.5 2.5 0 0 0 .48-2.233 1.537 1.537 0 0 0-1.881-1c-.832.326-1.337 1.529-2.207 1.344-.7-.154-.851-1.081-.851-1.811.026-3.814-1.817-9.233-3.244-9.067a11.5 11.5 0 0 1-4.255-.57 11.148 11.148 0 0 0-4.261-.544c-.1.013-.2.032-.314.051a9.436 9.436 0 0 0-.947-2.067 11.036 11.036 0 0 1-.115 2.342 21.9 21.9 0 0 1-3.545 1.12c-1.318.186-4.217 4.127-4.351 3.724a9.437 9.437 0 0 0-.947-2.067 11.044 11.044 0 0 1-.115 2.342c-.006.032-.006.058-.013.09-.64-.851-1.03-1.888-.813-1.094-2.143-4.85-1.312-8.324 2.06-12.413a6.484 6.484 0 0 1 2.527-2.028 3.187 3.187 0 0 1 3.11.307 10.462 10.462 0 0 1 10.378-2.214c3.513 1.222 6.219 1.939 6.757 5.624a7.82 7.82 0 0 1 7.493 3.647 11.809 11.809 0 0 1 1.388 8.488z" transform="translate(716.68 403.194)" style="fill:#2f2e41"/>
            <path data-name="Path 24" d="M798.043 437.841h-4.714v-36.285h3.834a.7.7 0 0 1 .7.7z" transform="translate(705.893 345.391)" style="fill:#3f3d56"/>
            <path data-name="Path 25" d="M764.758 444.181H714.13V418.34h50.628z" transform="translate(734.904 339.243)" style="fill:#fff"/>
            <path data-name="Path 26" d="M744.859 444.141h-30.577v-25.649h50.436v5.79a19.882 19.882 0 0 1-19.859 19.859z" transform="translate(734.849 339.188)" style="fill:#6c63ff"/>
            <path data-name="Path 27" d="M768.375 402.587a.705.705 0 0 0-.059.152l-1.746 6.729-1.894 3.586h-50.243v-.893l2.861-2.693 3.337-6.383a2.849 2.849 0 0 1 .572-.755 2.848 2.848 0 0 1 1.952-.774h44.6a.7.7 0 0 1 .621 1.031z" transform="translate(734.793 345.391)" style="fill:#3f3d56"/>
            <path data-name="Path 28" d="M764.758 444.181H714.13V418.34h50.628zm-50.244-.384h49.859v-25.072h-49.858z" transform="translate(734.904 339.243)" style="fill:#3f3d56"/>
            <path data-name="Path 29" d="m488.492 188.809-.932 3.439h-49.277l1.592-2.862z" transform="translate(1013.804 562.611)" style="fill:#6c63ff"/>
            <path data-name="Rectangle 20" transform="translate(1450.901 771.124)" style="fill:#fff" d="M0 0h8.071v.447H0z"/>
            <path data-name="Rectangle 21" transform="translate(1450.901 772.687)" style="fill:#fff" d="M0 0h8.071v.447H0z"/>
            <path data-name="Rectangle 22" transform="translate(1450.901 774.251)" style="fill:#fff" d="M0 0h8.071v.447H0z"/>
            <circle data-name="Ellipse 4" cx="2.903" cy="2.903" r="2.903" transform="translate(1451.125 760.343)" style="fill:#fff"/>
            <path data-name="Path 30" d="m814.287 368.339-11.541-1.653c-3.9 6.527-5.29 23.9-5.29 23.9l-11.3 26.846a5.147 5.147 0 1 0 8.025 3.866l18.549-31.248z" transform="translate(709.345 358.164)" style="fill:#ffb8b8"/>
            <path data-name="Path 31" d="M815.827 318.647a12.3 12.3 0 0 1 9.718 16.249l-2.449 6.942s3.085 20.9-2 26.8l-15.6-1.412s2.852-10.546.662-15.648c-1.341-3.125-1.267-13.917.055-22.7 1.008-6.698 2.914-11.269 9.614-10.231z" transform="translate(701.55 375.815)" style="fill:#e6e6e6"/>
            <path data-name="Path 32" d="M659.719 262.647a23.759 23.759 0 0 0-10.658 31.865c5.856 11.742 27.018 31.769 43.9 34.795-7.263-22.053 2.836-44.468-1.38-56-4.502-12.327-20.12-16.516-31.862-10.66z" transform="translate(759.656 397.231)" style="fill:#6c63ff"/>
            <circle cx="7.749" cy="7.749" r="7.749" transform="translate(1419.542 672.307)" style="fill:#fff"/>
            <circle cx="5.075" cy="5.075" r="5.075" transform="translate(1447.396 728.823)" style="fill:#6c63ff"/>
            <path data-name="Path 33" d="M682.13 283.142a7.748 7.748 0 1 1 .525 15.488 7.747 7.747 0 0 0-2.969-15 7.75 7.75 0 0 1 2.444-.488z" transform="translate(747.521 388.769)" style="opacity:.2;fill:#231f20;isolation:isolate"/>
            <path data-name="Path 34" d="M701 273.312c4.215 11.534-5.883 33.949 1.38 56a32.876 32.876 0 0 1-4.7-1.229c-5.917-21.318 3.37-42.62-.7-53.763-3.645-9.974-14.569-14.619-24.827-12.924 11.256-3.839 24.717.622 28.847 11.916z" transform="translate(750.282 397.227)" style="opacity:.2;fill:#231f20;isolation:isolate"/>
            <path data-name="Path 35" d="M329.294 449.842a22.015 22.015 0 0 0-22.537 21.48c-.292 12.155 8.363 37.728 20.88 47.522 3.608-21.209 21.592-35.192 23.137-46.465 1.651-12.046-9.325-22.245-21.48-22.537z" transform="translate(884.131 327.706)" style="fill:#d1d3d4"/>
            <circle data-name="b262ea8c-1946-46c9-a449-3a1996c39394" cx="7.18" cy="7.18" r="7.18" transform="translate(1203.983 790.325)" style="fill:#fff"/>
            <circle data-name="bcc29a3a-8123-4529-80aa-6f70df2823cf" cx="4.703" cy="4.703" r="4.703" transform="translate(1203.753 847.813)" style="fill:#d1d3d4"/>
            <path data-name="Path 36" d="M343.748 472.043a7.18 7.18 0 1 1-6.281 12.913 7.179 7.179 0 0 0 4.07-13.576 7.179 7.179 0 0 1 2.211.663z" transform="translate(872.879 319.814)" style="opacity:.2;fill:#231f20;isolation:isolate"/>
            <path data-name="Path 37" d="M360.979 472.576c-1.545 11.273-19.53 25.256-23.137 46.465a30.443 30.443 0 0 1-3.313-3.041c4.391-20.024 21.229-33.447 22.722-44.339 1.336-9.749-5.6-18.287-14.734-21.344 10.883 1.734 19.976 11.22 18.462 22.259z" transform="translate(873.955 327.53)" style="opacity:.2;fill:#231f20;isolation:isolate"/>
            <path data-name="Path 38" d="M460.03 302.21a6.311 6.311 0 0 0-5.895 6.538 6.053 6.053 0 0 0 .136.992l-18.629 11.736 10.3 4.555 16.112-11.843a6.294 6.294 0 0 0 4.45-6.264 6.023 6.023 0 0 0-6.308-5.724z" transform="translate(836.916 381.789)" style="fill:#ffb6b6"/>
            <path data-name="Path 39" d="m429.933 307.406 4.617 9.526-18.25 11.748a9.081 9.081 0 0 1-8.828.591 8.7 8.7 0 0 1-4.826-9.281l5.923-33.817a9.382 9.382 0 0 1 10.3-7.768 8.9 8.9 0 0 1 7.878 9.812q-.015.138-.034.275a9.15 9.15 0 0 1-.187.965l-6.467 24.05z" transform="translate(849.048 390.524)" style="fill:#6c63ff"/>
            <path data-name="Rectangle 23" transform="translate(1254.172 712.698)" style="fill:#ffb8b8" d="M0 0h26.107v26.107H0z"/>
            <path data-name="Path 40" d="m264.862 247.1 9.971-3.354 5.552 27.14-6.756 2.272z" transform="translate(1077.33 542.489)" style="fill:#ffb6b6"/>
            <path data-name="Path 41" d="m238.2 243.671 9.89-3.585 6.182 27-6.7 2.429z" transform="translate(1087.098 543.828)" style="fill:#ffb6b6"/>
            <path data-name="Path 42" d="M405.753 389.388c-5.233 34.884 64.449 14.26 64.449 14.26l21.848 30.14 12.791-2.326s-5.755-18.094-16.034-42.349c-4.565-10.772-56.4-8.14-56.4-8.14l-1.076-8.446-29.652-.581z" transform="translate(849.356 356.238)" style="fill:#2f2e41"/>
            <path data-name="Path 43" d="m487.536 419.863 16.113-10.035c11.8 23.555 15.273 33.756 15.273 33.756l-11.152 3.136z" transform="translate(817.907 342.361)" style="fill:#2f2e41"/>
            <path data-name="Path 44" d="m419.794 276.47-5.255-6.755-7.5-.325-.748 6.353-3.714 1.713a99.611 99.611 0 0 0-1.678 43.156 3.843 3.843 0 0 1 1.101 3.732l-.241.96.022.035a5.623 5.623 0 0 1 .747 4.2l-1.774 3.152a8.951 8.951 0 0 0 4.764 12.8c10.9 3.952 21.124 5.424 28.685-5.666l2.378-38.646z" transform="translate(850.229 393.805)" style="fill:#6c63ff"/>
            <circle data-name="Ellipse 5" cx="13.859" cy="13.859" r="13.859" transform="translate(1250.658 637.594)" style="fill:#ffb8b8"/>
            <path data-name="Path 45" d="M403.673 222.779c-5.868.113-10.523 5.556-10.4 12.158-4.343 4.531-5.395 26.819-1.766 32.748 6.638.771 10.675-15.651 16.5-13.277l.767-3.584 1.738 4.667q2.219 1.023 4.4 2.246c1.047-4.8.787-9.471-2.027-13.537-2.5-3.612 3.584-7.9 7.935-7.295l-.064-3.318 1.093 3.3c1.7 1.246 3.572.8 5.5-.106 3.122-16.217-21.033-20.652-23.676-14.002z" transform="translate(853.887 411.968)" style="fill:#2f2e41"/>
            <path data-name="Path 46" d="m554.106 507.366 4.442-.58.245-4.3 2.579 3.929 11.782-1.539a2.671 2.671 0 0 0 .874-5.024l-10.257-5.269-.554-4.24-9.819 1.883z" transform="translate(793.782 312.867)" style="fill:#2f2e41"/>
            <path data-name="Path 47" d="m532.841 506.266 4.03-1.957-1.128-4.154 3.69 2.91 10.688-5.19a2.671 2.671 0 0 0-.762-5.043l-11.4-1.75-1.868-3.847-8.718 4.9z" transform="translate(803.313 314.006)" style="fill:#2f2e41"/>
            <path data-name="Path 48" d="M440 349.437h4.942V311.4h-4.022a.736.736 0 0 0-.736.733z" transform="translate(835.321 378.414)" style="fill:#ccc"/>
            <path data-name="Path 49" d="M447.067 329h53.067v27.086h-53.067z" transform="translate(832.731 371.97)" style="fill:#fff"/>
            <path data-name="Path 50" d="M447.226 335.224v-6.069h52.865v26.885h-32.05a20.839 20.839 0 0 1-20.815-20.816z" transform="translate(832.673 371.912)" style="fill:#f2f2f2"/>
            <path data-name="Path 51" d="M441.218 312.484a.734.734 0 0 1 .062.159l1.83 7.053 1.985 3.759h52.664v-.936l-3-2.823-3.5-6.69a2.985 2.985 0 0 0-.6-.791 2.986 2.986 0 0 0-2.046-.811H441.87a.736.736 0 0 0-.651 1.08z" transform="translate(834.905 378.414)" style="fill:#f2f2f2"/>
            <path data-name="Path 52" d="M447.067 329h53.067v27.086h-53.067zm52.664 26.683H447.47V329.4h52.261z" transform="translate(832.731 371.97)" style="fill:#e6e6e6"/>
            <path data-name="Path 53" d="m162.045 99 .978 3.6h51.65l-1.673-3z" transform="translate(1114.992 595.51)" style="fill:#ccc"/>
            <path data-name="Rectangle 24" transform="translate(1322.449 715.16)" style="fill:#fff" d="M0 0h8.459v.468H0z"/>
            <path data-name="Rectangle 25" transform="translate(1322.449 716.798)" style="fill:#fff" d="M0 0h8.459v.468H0z"/>
            <path data-name="Rectangle 26" transform="translate(1322.449 718.437)" style="fill:#fff" d="M0 0h8.459v.468H0z"/>
            <circle data-name="Ellipse 6" cx="3.043" cy="3.043" r="3.043" transform="translate(1324.589 703.86)" style="fill:#fff"/>
            <path data-name="Path 54" d="M476.148 265.808a13.49 13.49 0 0 1 13.809 13.162c.179 7.448-5.124 23.117-12.794 29.119-2.21-13-13.23-21.564-14.177-28.471-1.011-7.381 5.714-13.631 13.162-13.81z" transform="translate(826.937 395.118)" style="fill:#d1d3d4"/>
            <circle data-name="b262ea8c-1946-46c9-a449-3a1996c39394" cx="4.399" cy="4.399" r="4.399" transform="translate(1300.071 668.755)" style="fill:#fff"/>
            <circle data-name="bcc29a3a-8123-4529-80aa-6f70df2823cf" cx="2.882" cy="2.882" r="2.882" transform="translate(1303.248 703.981)" style="fill:#d1d3d4"/>
            <path data-name="Path 55" d="M479.287 279.412a4.4 4.4 0 1 0 3.849 7.912 4.4 4.4 0 0 1-2.494-8.318 4.4 4.4 0 0 0-1.355.406z" transform="translate(821.836 390.282)" style="opacity:.2;fill:#231f20;isolation:isolate"/>
            <path data-name="Path 56" d="M462.957 279.739c.947 6.908 11.967 15.476 14.177 28.471a18.652 18.652 0 0 0 2.031-1.864c-2.691-12.27-13.008-20.494-13.923-27.168-.819-5.973 3.43-11.205 9.028-13.078-6.67 1.062-12.24 6.874-11.313 13.639z" transform="translate(826.948 395.01)" style="opacity:.2;fill:#231f20;isolation:isolate"/>
            <path data-name="Path 57" d="M455.941 323.531a6.311 6.311 0 0 0-6.745 5.656 6.059 6.059 0 0 0 0 1l-20.078 9.037 9.567 5.941 17.6-9.492a6.294 6.294 0 0 0 5.276-5.586 6.023 6.023 0 0 0-5.452-6.544z" transform="translate(839.307 373.979)" style="fill:#ffb6b6"/>
            <path data-name="Path 58" d="m423.457 323.716 3.25 10.075-19.707 9.1a9.081 9.081 0 0 1-8.824-.64 8.7 8.7 0 0 1-3.491-9.861l10.56-32.667a9.382 9.382 0 0 1 11.279-6.263 8.9 8.9 0 0 1 6.439 10.81q-.034.134-.072.267a9.117 9.117 0 0 1-.319.93l-9.743 22.92z" transform="translate(852.067 385.096)" style="fill:#6c63ff"/>
            <g data-name="Group 6">
                <path data-name="Path 171" d="M622.549 812.594a6.7 6.7 0 0 0 2.171-3.315 2.94 2.94 0 0 0-1.534-3.365c-1.447-.543-2.895.434-4.053 1.447s-2.453 2.113-3.944 1.9a5.992 5.992 0 0 0 1.853-5.616 2.359 2.359 0 0 0-.514-1.143c-.782-.832-2.171-.47-3.134.188-2.974 2.091-3.807 6.13-3.821 9.77a18.218 18.218 0 0 1-.058-4.024 4.128 4.128 0 0 0-1.513-3.56 4.488 4.488 0 0 0-2.3-.543 4.741 4.741 0 0 0-3.741 1.064c-1.136 1.216-.839 3.257.145 4.588a14.776 14.776 0 0 0 3.872 3.1 8.467 8.467 0 0 1 2.765 2.641 2.176 2.176 0 0 1 .21.47h8.387a23.3 23.3 0 0 0 5.209-3.602z" transform="translate(713.225 103.185)" style="fill:#6c63ff"/>
                <path data-name="Path 172" d="M550.92 776.86s-8.047-27.3 1.505-47.4a43.123 43.123 0 0 0 3.466-27.058 73.237 73.237 0 0 0-3.828-12.7" transform="translate(728.002 134.223)" style="fill:none;stroke:#535461;stroke-miterlimit:10;stroke-width:2px"/>
                <path data-name="Path 173" d="M557.372 669.914c0 3.343-6.064 13.026-6.064 13.026s-6.057-9.7-6.057-13.026a6.064 6.064 0 0 1 12.122 0z" transform="translate(728.693 141.308)" style="fill:#6c63ff"/>
                <path data-name="Path 174" d="M571.139 694.188c-1.824 2.815-12.18 7.664-12.18 7.664s.188-11.441 2-14.249a6.06 6.06 0 1 1 10.175 6.585z" transform="translate(724.905 135.567)" style="fill:#6c63ff"/>
                <path data-name="Path 175" d="M569.689 737.151c-2.989 1.513-14.379.47-14.379.47s5.934-9.784 8.923-11.289a6.058 6.058 0 1 1 5.456 10.819z" transform="translate(725.913 124.28)" style="fill:#6c63ff"/>
                <path data-name="Path 176" d="M561.887 770.374c-2.692 1.99-14.1 2.895-14.1 2.895s4.2-10.645 6.889-12.635a6.07 6.07 0 1 1 7.237 9.748z" transform="translate(727.991 114.953)" style="fill:#6c63ff"/>
                <path data-name="Path 177" d="M540.68 705.276c2.4 2.33 13.583 4.747 13.583 4.747s-2.743-11.108-5.138-13.439a6.057 6.057 0 1 0-8.446 8.684z" transform="translate(730.463 132.794)" style="fill:#6c63ff"/>
                <path data-name="Path 178" d="M531.332 743.621c2.989 1.513 14.379.47 14.379.47s-5.934-9.784-8.923-11.289a6.075 6.075 0 0 0-5.456 10.855z" transform="translate(733.464 122.492)" style="fill:#6c63ff"/>
                <path data-name="Path 179" d="M528.3 782.6c2.692 1.99 14.1 2.895 14.1 2.895s-4.2-10.645-6.89-12.635a6.067 6.067 0 1 0-7.237 9.741z" transform="translate(734.061 111.574)" style="fill:#6c63ff"/>
                <path data-name="Path 180" d="M557.372 669.914c0 3.343-6.064 13.026-6.064 13.026s-6.057-9.7-6.057-13.026a6.064 6.064 0 0 1 12.122 0z" transform="translate(728.693 141.308)" style="fill:#6c63ff"/>
                <path data-name="Path 181" d="M571.139 694.188c-1.824 2.815-12.18 7.664-12.18 7.664s.188-11.441 2-14.249a6.06 6.06 0 1 1 10.175 6.585z" transform="translate(724.905 135.567)" style="fill:#6c63ff"/>
                <path data-name="Path 182" d="M569.689 737.151c-2.989 1.513-14.379.47-14.379.47s5.934-9.784 8.923-11.289a6.058 6.058 0 1 1 5.456 10.819z" transform="translate(725.913 124.28)" style="fill:#6c63ff"/>
                <path data-name="Path 183" d="M561.887 770.374c-2.692 1.99-14.1 2.895-14.1 2.895s4.2-10.645 6.889-12.635a6.07 6.07 0 1 1 7.237 9.748z" transform="translate(727.991 114.953)" style="fill:#6c63ff"/>
                <path data-name="Path 184" d="M540.68 705.276c2.4 2.33 13.583 4.747 13.583 4.747s-2.743-11.108-5.138-13.439a6.057 6.057 0 1 0-8.446 8.684z" transform="translate(730.463 132.794)" style="fill:#6c63ff"/>
                <path data-name="Path 185" d="M531.332 743.621c2.989 1.513 14.379.47 14.379.47s-5.934-9.784-8.923-11.289a6.075 6.075 0 0 0-5.456 10.855z" transform="translate(733.464 122.492)" style="fill:#6c63ff"/>
                <path data-name="Path 186" d="M528.3 782.6c2.692 1.99 14.1 2.895 14.1 2.895s-4.2-10.645-6.89-12.635a6.067 6.067 0 1 0-7.237 9.741z" transform="translate(734.061 111.574)" style="fill:#6c63ff"/>
                <path data-name="Path 187" d="M525.86 804.113s9.791-1.947 12.4-4.537 14.365-7.128 15.668-3.893 17.629 14.264 6.513 16.21-26.11 2.591-29.374 1.3-5.207-9.08-5.207-9.08z" transform="translate(734.051 105.247)" style="fill:#a8a8a8"/>
                <path data-name="Path 188" d="M560.466 814.3c-11.1 1.947-26.117 2.591-29.381 1.3-2.489-.984-4.212-5.732-4.9-7.96l-.326.072s1.961 7.779 5.225 9.075 18.28.644 29.381-1.3c3.2-.565 4.118-1.882 3.771-3.553-.275 1.109-1.367 1.941-3.77 2.366z" transform="translate(734.051 101.636)" style="opacity:.2"/>
                <path data-name="Path 161" d="M701.9 754.23s4.5 5.884-2.077 14.77-12 16.384-9.806 21.92c0 0 9.922-16.5 18-16.731s2.773-10.037-6.117-19.959z" transform="translate(688.826 116.391)" style="fill:#6c63ff"/>
                <path data-name="Path 162" d="M702 754.23a7.237 7.237 0 0 1 .919 1.845c7.881 9.256 12.085 17.9 4.508 18.092-7.056.2-15.523 12.823-17.549 16.008a6.514 6.514 0 0 0 .239.724s9.922-16.5 18-16.731 2.771-10.016-6.117-19.938z" transform="translate(688.728 116.391)" style="opacity:.1"/>
                <path data-name="Path 163" d="M717.795 764.084c0 2.077-.232 3.756-.514 3.756s-.521-1.679-.521-3.756.289-1.093.579-1.093.456-.977.456 1.093z" transform="translate(681.301 114.035)" style="fill:#ffd037"/>
                <path data-name="Path 164" d="M720.8 767.458c-1.816.991-3.4 1.592-3.539 1.339s1.223-1.259 3.039-2.251 1.107-.268 1.245 0 1.076-.072-.745.912z" transform="translate(681.164 113.128)" style="fill:#ffd037"/>
                <path data-name="Path 165" d="M669.934 754.23s-4.5 5.884 2.077 14.77 12 16.384 9.806 21.92c0 0-9.922-16.5-18-16.731s-2.77-10.037 6.117-19.959z" transform="translate(697.03 116.391)" style="fill:#6c63ff"/>
                <path data-name="Path 166" d="M669.934 754.23a7.239 7.239 0 0 0-.919 1.845c-7.881 9.256-12.078 17.9-4.5 18.092 7.056.2 15.516 12.823 17.542 16.008a6.514 6.514 0 0 1-.239.724s-9.922-16.5-18-16.731-2.771-10.016 6.116-19.938z" transform="translate(697.03 116.391)" style="opacity:.1"/>
                <path data-name="Path 167" d="M662.23 764.084c0 2.077.232 3.756.521 3.756s.521-1.679.521-3.756-.3-1.093-.579-1.093-.463-.977-.463 1.093z" transform="translate(696.369 114.035)" style="fill:#ffd037"/>
                <path data-name="Path 168" d="M657.839 767.458c1.824.991 3.409 1.592 3.546 1.339s-1.23-1.259-3.047-2.251-1.1-.268-1.237 0-1.079-.072.738.912z" transform="translate(697.887 113.128)" style="fill:#ffd037"/>
                <path data-name="Path 169" d="M664.21 801.274s12.585-.391 16.377-3.09 19.351-5.92 20.263-1.592 18.9 21.537 4.7 21.652-33.007-2.214-36.792-4.523-4.548-12.447-4.548-12.447z" transform="translate(695.822 105.271)" style="fill:#a8a8a8"/>
                <path data-name="Path 170" d="M705.836 819.322c-14.206.116-33.007-2.207-36.792-4.516-2.895-1.751-4.031-8.055-4.414-10.957h-.42s.8 10.131 4.581 12.447 22.586 4.639 36.792 4.523c4.1-.036 5.514-1.491 5.435-3.655-.565 1.319-2.136 2.136-5.182 2.158z" transform="translate(695.822 102.68)" style="opacity:.2"/>
            </g>
        </g>
    </g>
</svg>
